<mxfile host="app.diagrams.net" modified="2022-03-09T23:31:24.565Z" agent="5.0 (Windows)" etag="Jl7-P1tyGuM1lQskS1C1" version="17.0.0" type="github">
  <diagram id="sM2kCoirUGaHbNjelESp" name="Page-1">
    <mxGraphModel dx="964" dy="1600" grid="1" gridSize="10" guides="1" tooltips="1" connect="1" arrows="1" fold="1" page="1" pageScale="1" pageWidth="850" pageHeight="1100" math="0" shadow="0">
      <root>
        <mxCell id="0" />
        <mxCell id="1" parent="0" />
        <mxCell id="mJ6I8PA1A6m0MD-6uSbp-4" style="edgeStyle=orthogonalEdgeStyle;rounded=0;orthogonalLoop=1;jettySize=auto;html=1;exitX=1;exitY=0.5;exitDx=0;exitDy=0;entryX=0;entryY=0.5;entryDx=0;entryDy=0;strokeWidth=3;" edge="1" parent="1" source="mJ6I8PA1A6m0MD-6uSbp-6" target="mJ6I8PA1A6m0MD-6uSbp-7">
          <mxGeometry relative="1" as="geometry" />
        </mxCell>
        <mxCell id="mJ6I8PA1A6m0MD-6uSbp-5" value="&lt;div style=&quot;font-size: 18px;&quot;&gt;&lt;font style=&quot;font-size: 18px;&quot;&gt;Player&lt;/font&gt;&lt;/div&gt;&lt;div style=&quot;font-size: 18px;&quot;&gt;&lt;font style=&quot;font-size: 18px;&quot;&gt;Input&lt;/font&gt;&lt;br style=&quot;font-size: 18px;&quot;&gt;&lt;/div&gt;" style="edgeLabel;html=1;align=center;verticalAlign=middle;resizable=0;points=[];fontSize=18;labelBackgroundColor=#FFFFFF;" vertex="1" connectable="0" parent="mJ6I8PA1A6m0MD-6uSbp-4">
          <mxGeometry x="-0.2952" y="-1" relative="1" as="geometry">
            <mxPoint x="-4" y="-4" as="offset" />
          </mxGeometry>
        </mxCell>
        <mxCell id="mJ6I8PA1A6m0MD-6uSbp-6" value="&lt;font style=&quot;font-size: 24px&quot;&gt;Player&lt;/font&gt;" style="rounded=1;whiteSpace=wrap;html=1;strokeWidth=3;" vertex="1" parent="1">
          <mxGeometry x="50" y="245" width="120" height="60" as="geometry" />
        </mxCell>
        <mxCell id="mJ6I8PA1A6m0MD-6uSbp-10" value="&lt;div style=&quot;font-size: 16px;&quot;&gt;Quest&lt;/div&gt;&lt;div style=&quot;font-size: 16px;&quot;&gt;Info&lt;/div&gt;" style="edgeStyle=orthogonalEdgeStyle;rounded=0;orthogonalLoop=1;jettySize=auto;html=1;exitX=1;exitY=0.5;exitDx=0;exitDy=0;entryX=0;entryY=0.5;entryDx=0;entryDy=0;strokeWidth=3;fontSize=16;" edge="1" parent="1" source="mJ6I8PA1A6m0MD-6uSbp-7" target="mJ6I8PA1A6m0MD-6uSbp-9">
          <mxGeometry relative="1" as="geometry">
            <Array as="points">
              <mxPoint x="450" y="275" />
              <mxPoint x="450" y="275" />
            </Array>
          </mxGeometry>
        </mxCell>
        <mxCell id="mJ6I8PA1A6m0MD-6uSbp-7" value="1. Select Quest" style="ellipse;whiteSpace=wrap;html=1;aspect=fixed;fontSize=24;strokeWidth=3;" vertex="1" parent="1">
          <mxGeometry x="275" y="200" width="150" height="150" as="geometry" />
        </mxCell>
        <mxCell id="mJ6I8PA1A6m0MD-6uSbp-12" style="edgeStyle=orthogonalEdgeStyle;rounded=0;orthogonalLoop=1;jettySize=auto;html=1;exitX=1;exitY=0.5;exitDx=0;exitDy=0;entryX=0;entryY=0.5;entryDx=0;entryDy=0;fontSize=24;strokeWidth=3;" edge="1" parent="1" source="mJ6I8PA1A6m0MD-6uSbp-9" target="mJ6I8PA1A6m0MD-6uSbp-11">
          <mxGeometry relative="1" as="geometry" />
        </mxCell>
        <mxCell id="mJ6I8PA1A6m0MD-6uSbp-9" value="2. Start Quest" style="ellipse;whiteSpace=wrap;html=1;aspect=fixed;fontSize=24;strokeWidth=3;" vertex="1" parent="1">
          <mxGeometry x="490" y="200" width="150" height="150" as="geometry" />
        </mxCell>
        <mxCell id="mJ6I8PA1A6m0MD-6uSbp-14" value="No" style="edgeStyle=orthogonalEdgeStyle;rounded=0;orthogonalLoop=1;jettySize=auto;html=1;exitX=0.5;exitY=1;exitDx=0;exitDy=0;entryX=1;entryY=0.5;entryDx=0;entryDy=0;fontSize=24;strokeWidth=3;" edge="1" parent="1" source="mJ6I8PA1A6m0MD-6uSbp-11" target="mJ6I8PA1A6m0MD-6uSbp-13">
          <mxGeometry x="-0.4118" relative="1" as="geometry">
            <mxPoint y="1" as="offset" />
          </mxGeometry>
        </mxCell>
        <mxCell id="mJ6I8PA1A6m0MD-6uSbp-17" value="Yes" style="edgeStyle=orthogonalEdgeStyle;rounded=0;orthogonalLoop=1;jettySize=auto;html=1;exitX=0.5;exitY=0;exitDx=0;exitDy=0;entryX=0.5;entryY=1;entryDx=0;entryDy=0;fontSize=24;strokeWidth=3;" edge="1" parent="1" source="mJ6I8PA1A6m0MD-6uSbp-11" target="mJ6I8PA1A6m0MD-6uSbp-16">
          <mxGeometry relative="1" as="geometry" />
        </mxCell>
        <mxCell id="mJ6I8PA1A6m0MD-6uSbp-11" value="&lt;font style=&quot;font-size: 24px&quot;&gt;Successful?&lt;/font&gt;" style="rhombus;whiteSpace=wrap;html=1;strokeWidth=3;" vertex="1" parent="1">
          <mxGeometry x="670" y="235" width="170" height="80" as="geometry" />
        </mxCell>
        <mxCell id="mJ6I8PA1A6m0MD-6uSbp-15" style="edgeStyle=orthogonalEdgeStyle;rounded=0;orthogonalLoop=1;jettySize=auto;html=1;exitX=0;exitY=0.5;exitDx=0;exitDy=0;fontSize=24;strokeWidth=3;" edge="1" parent="1" source="mJ6I8PA1A6m0MD-6uSbp-13" target="mJ6I8PA1A6m0MD-6uSbp-7">
          <mxGeometry relative="1" as="geometry" />
        </mxCell>
        <mxCell id="mJ6I8PA1A6m0MD-6uSbp-30" value="Replay Quest" style="edgeLabel;html=1;align=center;verticalAlign=middle;resizable=0;points=[];fontSize=16;" vertex="1" connectable="0" parent="mJ6I8PA1A6m0MD-6uSbp-15">
          <mxGeometry x="0.4376" y="2" relative="1" as="geometry">
            <mxPoint y="-1" as="offset" />
          </mxGeometry>
        </mxCell>
        <mxCell id="mJ6I8PA1A6m0MD-6uSbp-13" value="3. Unsuccessful Quest" style="ellipse;whiteSpace=wrap;html=1;aspect=fixed;fontSize=24;strokeWidth=3;" vertex="1" parent="1">
          <mxGeometry x="490" y="380" width="150" height="150" as="geometry" />
        </mxCell>
        <mxCell id="mJ6I8PA1A6m0MD-6uSbp-19" style="edgeStyle=orthogonalEdgeStyle;rounded=0;orthogonalLoop=1;jettySize=auto;html=1;exitX=0;exitY=0.5;exitDx=0;exitDy=0;entryX=1;entryY=0.5;entryDx=0;entryDy=0;fontSize=24;strokeWidth=3;" edge="1" parent="1" source="mJ6I8PA1A6m0MD-6uSbp-16" target="mJ6I8PA1A6m0MD-6uSbp-18">
          <mxGeometry relative="1" as="geometry" />
        </mxCell>
        <mxCell id="mJ6I8PA1A6m0MD-6uSbp-16" value="4. Successful Quest" style="ellipse;whiteSpace=wrap;html=1;aspect=fixed;fontSize=24;strokeWidth=3;" vertex="1" parent="1">
          <mxGeometry x="680" y="20" width="150" height="150" as="geometry" />
        </mxCell>
        <mxCell id="mJ6I8PA1A6m0MD-6uSbp-22" style="edgeStyle=orthogonalEdgeStyle;rounded=0;orthogonalLoop=1;jettySize=auto;html=1;exitX=0;exitY=0.5;exitDx=0;exitDy=0;entryX=1;entryY=0.5;entryDx=0;entryDy=0;fontSize=24;strokeWidth=3;" edge="1" parent="1" source="mJ6I8PA1A6m0MD-6uSbp-18" target="mJ6I8PA1A6m0MD-6uSbp-21">
          <mxGeometry relative="1" as="geometry" />
        </mxCell>
        <mxCell id="mJ6I8PA1A6m0MD-6uSbp-28" style="edgeStyle=orthogonalEdgeStyle;rounded=0;orthogonalLoop=1;jettySize=auto;html=1;exitX=0.5;exitY=0;exitDx=0;exitDy=0;entryX=0;entryY=0.5;entryDx=0;entryDy=0;fontSize=24;strokeWidth=3;" edge="1" parent="1" source="mJ6I8PA1A6m0MD-6uSbp-18" target="mJ6I8PA1A6m0MD-6uSbp-6">
          <mxGeometry relative="1" as="geometry">
            <Array as="points">
              <mxPoint x="565" y="-20" />
              <mxPoint x="20" y="-20" />
              <mxPoint x="20" y="275" />
            </Array>
          </mxGeometry>
        </mxCell>
        <mxCell id="mJ6I8PA1A6m0MD-6uSbp-29" value="Increase XP" style="edgeLabel;html=1;align=center;verticalAlign=middle;resizable=0;points=[];fontSize=24;" vertex="1" connectable="0" parent="mJ6I8PA1A6m0MD-6uSbp-28">
          <mxGeometry x="-0.3839" y="2" relative="1" as="geometry">
            <mxPoint as="offset" />
          </mxGeometry>
        </mxCell>
        <mxCell id="mJ6I8PA1A6m0MD-6uSbp-18" value="5. Reward Player" style="ellipse;whiteSpace=wrap;html=1;aspect=fixed;fontSize=24;strokeWidth=3;" vertex="1" parent="1">
          <mxGeometry x="490" y="20" width="150" height="150" as="geometry" />
        </mxCell>
        <mxCell id="mJ6I8PA1A6m0MD-6uSbp-23" value="Yes" style="edgeStyle=orthogonalEdgeStyle;rounded=0;orthogonalLoop=1;jettySize=auto;html=1;fontSize=24;strokeWidth=3;" edge="1" parent="1" source="mJ6I8PA1A6m0MD-6uSbp-21" target="mJ6I8PA1A6m0MD-6uSbp-7">
          <mxGeometry relative="1" as="geometry" />
        </mxCell>
        <mxCell id="mJ6I8PA1A6m0MD-6uSbp-25" value="No" style="edgeStyle=orthogonalEdgeStyle;rounded=0;orthogonalLoop=1;jettySize=auto;html=1;exitX=0;exitY=0.5;exitDx=0;exitDy=0;entryX=1;entryY=0.5;entryDx=0;entryDy=0;fontSize=24;strokeWidth=3;" edge="1" parent="1" source="mJ6I8PA1A6m0MD-6uSbp-21" target="mJ6I8PA1A6m0MD-6uSbp-24">
          <mxGeometry relative="1" as="geometry" />
        </mxCell>
        <mxCell id="mJ6I8PA1A6m0MD-6uSbp-21" value="&lt;font style=&quot;font-size: 24px&quot;&gt;Replayble?&lt;/font&gt;" style="rhombus;whiteSpace=wrap;html=1;strokeWidth=3;" vertex="1" parent="1">
          <mxGeometry x="265" y="55" width="170" height="80" as="geometry" />
        </mxCell>
        <mxCell id="mJ6I8PA1A6m0MD-6uSbp-26" style="edgeStyle=orthogonalEdgeStyle;rounded=0;orthogonalLoop=1;jettySize=auto;html=1;exitX=1;exitY=1;exitDx=0;exitDy=0;entryX=0;entryY=0;entryDx=0;entryDy=0;fontSize=24;strokeWidth=3;" edge="1" parent="1" source="mJ6I8PA1A6m0MD-6uSbp-24" target="mJ6I8PA1A6m0MD-6uSbp-7">
          <mxGeometry relative="1" as="geometry" />
        </mxCell>
        <mxCell id="mJ6I8PA1A6m0MD-6uSbp-24" value="&lt;div&gt;6. Remove&lt;/div&gt;&lt;div&gt;Quest&lt;br&gt;&lt;/div&gt;" style="ellipse;whiteSpace=wrap;html=1;aspect=fixed;fontSize=24;strokeWidth=3;" vertex="1" parent="1">
          <mxGeometry x="51" y="20" width="150" height="150" as="geometry" />
        </mxCell>
      </root>
    </mxGraphModel>
  </diagram>
</mxfile>
